<?xml version="1.0" encoding="UTF-8" ?>
<!DOCTYPE svg PUBLIC "-//W3C//DTD SVG 1.1//EN" "http://www.w3.org/Graphics/SVG/1.1/DTD/svg11.dtd">
<svg width="500pt" height="500pt" viewBox="0 0 500 500" version="1.1" xmlns="http://www.w3.org/2000/svg">
<g id="#000000ff">
</g>
<g id="#004aadff">
<path fill="#004aad" opacity="1.00" d=" M 293.33 178.54 C 293.67 176.72 294.05 174.90 294.69 173.16 C 303.19 175.18 311.80 176.70 320.30 178.74 C 319.92 180.54 319.55 182.34 319.16 184.14 C 318.76 185.96 318.36 187.79 317.99 189.62 C 314.10 208.87 310.05 228.11 303.98 246.82 C 307.97 242.84 312.04 238.94 315.91 234.84 C 319.48 231.56 322.88 228.09 326.34 224.69 C 338.87 212.41 351.11 199.82 363.85 187.78 C 374.42 190.17 385.05 192.32 395.66 194.56 C 395.31 196.40 394.95 198.24 394.55 200.08 C 394.17 201.83 393.79 203.58 393.44 205.33 C 387.33 234.40 381.13 263.44 375.04 292.50 C 371.57 291.89 368.12 291.16 364.64 290.60 C 364.51 290.41 364.26 290.03 364.13 289.84 C 361.48 289.75 358.88 289.28 356.31 288.66 C 353.95 288.14 351.57 287.66 349.21 287.16 C 351.43 276.00 353.89 264.89 356.20 253.75 C 357.32 248.31 358.56 242.90 359.93 237.53 C 361.70 231.50 363.59 225.51 365.19 219.44 C 345.15 238.68 325.72 258.58 305.84 277.99 C 299.87 276.74 293.91 275.48 287.95 274.20 C 285.61 273.69 283.27 273.19 280.94 272.72 C 278.54 272.23 276.16 271.73 273.78 271.20 C 280.23 240.30 286.84 209.43 293.33 178.54 Z" />
</g>
<g id="#760e81ff">
<path fill="#760e81" opacity="1.00" d=" M 317.99 189.62 C 318.36 187.79 318.76 185.96 319.16 184.14 C 321.53 184.62 323.89 185.14 326.26 185.69 C 326.13 186.24 325.88 187.32 325.75 187.87 C 325.52 188.84 325.31 189.82 325.12 190.80 C 322.75 190.35 320.37 189.97 317.99 189.62 Z" />
<path fill="#760e81" opacity="1.00" d=" M 393.44 205.33 C 393.79 203.58 394.17 201.83 394.55 200.08 C 396.91 200.58 399.27 201.08 401.64 201.57 C 401.32 203.36 401.01 205.16 400.66 206.95 C 400.62 207.13 400.54 207.49 400.51 207.67 C 398.53 205.98 395.86 205.82 393.44 205.33 Z" />
<path fill="#760e81" opacity="1.00" d=" M 280.94 272.72 C 283.27 273.19 285.61 273.69 287.95 274.20 C 287.60 276.03 287.26 277.87 286.94 279.71 L 286.69 279.66 C 284.39 279.18 282.09 278.71 279.80 278.20 C 280.13 276.36 280.51 274.53 280.94 272.72 Z" />
<path fill="#760e81" opacity="1.00" d=" M 356.31 288.66 C 358.88 289.28 361.48 289.75 364.13 289.84 C 364.26 290.03 364.51 290.41 364.64 290.60 C 363.37 292.04 362.42 293.72 361.61 295.46 C 359.46 295.05 357.34 294.61 355.21 294.16 C 355.55 292.32 355.92 290.49 356.31 288.66 Z" />
</g>
<g id="#47004dff">
<path fill="#47004d" opacity="1.00" d=" M 325.12 190.80 C 325.31 189.82 325.52 188.84 325.75 187.87 C 325.72 188.65 325.66 190.22 325.63 191.01 C 327.76 191.45 329.89 191.88 332.03 192.32 C 331.06 200.29 328.80 208.05 327.35 215.94 C 326.99 218.83 325.40 221.78 326.34 224.69 C 322.88 228.09 319.48 231.56 315.91 234.84 C 318.83 220.14 322.35 205.54 325.12 190.80 Z" />
<path fill="#47004d" opacity="1.00" d=" M 400.66 206.95 C 403.04 207.34 405.50 207.61 407.71 208.66 C 406.75 213.18 405.42 217.65 405.14 222.29 C 404.71 224.11 404.23 225.91 403.81 227.74 C 397.84 253.79 392.69 280.05 387.04 306.18 C 378.44 304.84 370.01 302.56 361.43 301.02 C 361.36 299.17 361.88 297.39 362.32 295.62 C 368.49 297.01 374.70 298.24 380.88 299.60 C 387.67 269.02 393.78 238.27 400.51 207.67 C 400.54 207.49 400.62 207.13 400.66 206.95 Z" />
<path fill="#47004d" opacity="1.00" d=" M 311.88 284.94 C 327.98 269.23 343.73 253.14 359.93 237.53 C 358.56 242.90 357.32 248.31 356.20 253.75 C 343.44 266.37 330.72 279.04 317.97 291.67 C 307.26 289.61 296.62 287.21 285.95 284.98 C 286.18 283.20 286.43 281.43 286.69 279.66 L 286.94 279.71 C 295.25 281.45 303.55 283.30 311.88 284.94 Z" />
</g>
<g id="#9900a6ff">
<path fill="#9900a6" opacity="1.00" d=" M 317.99 189.62 C 320.37 189.97 322.75 190.35 325.12 190.80 C 322.35 205.54 318.83 220.14 315.91 234.84 C 312.04 238.94 307.97 242.84 303.98 246.82 C 310.05 228.11 314.10 208.87 317.99 189.62 Z" />
<path fill="#9900a6" opacity="1.00" d=" M 375.04 292.50 C 381.13 263.44 387.33 234.40 393.44 205.33 C 395.86 205.82 398.53 205.98 400.51 207.67 C 393.78 238.27 387.67 269.02 380.88 299.60 C 374.70 298.24 368.49 297.01 362.32 295.62 L 361.61 295.46 C 362.42 293.72 363.37 292.04 364.64 290.60 C 368.12 291.16 371.57 291.89 375.04 292.50 Z" />
<path fill="#9900a6" opacity="1.00" d=" M 305.84 277.99 C 325.72 258.58 345.15 238.68 365.19 219.44 C 363.59 225.51 361.70 231.50 359.93 237.53 C 343.73 253.14 327.98 269.23 311.88 284.94 C 303.55 283.30 295.25 281.45 286.94 279.71 C 287.26 277.87 287.60 276.03 287.95 274.20 C 293.91 275.48 299.87 276.74 305.84 277.99 Z" />
</g>
<g id="#ffffffff">
<path fill="#ffffff" opacity="1.00" d=" M 430.89 196.08 C 439.60 193.00 449.41 193.30 457.93 196.86 C 470.80 202.10 480.75 214.19 482.95 227.97 C 484.79 238.74 481.50 250.08 474.70 258.55 C 467.18 268.10 455.28 274.29 443.03 274.11 C 430.62 274.06 418.68 267.51 411.33 257.63 C 404.94 249.21 402.00 238.19 403.81 227.74 C 404.23 225.91 404.71 224.11 405.14 222.29 C 409.08 210.21 418.86 200.21 430.89 196.08 M 438.55 211.65 C 429.52 213.87 422.07 221.78 420.75 231.03 C 418.88 243.53 429.47 255.92 441.91 256.82 C 455.13 257.83 467.46 245.17 466.11 231.98 C 464.96 219.08 451.38 208.41 438.55 211.65 Z" />
<path fill="#ffffff" opacity="1.00" d=" M 19.35 195.10 C 28.91 195.03 38.47 195.05 48.03 195.08 C 53.38 195.07 58.74 196.75 62.94 200.09 C 74.01 208.47 75.46 226.13 66.79 236.72 C 63.73 240.52 59.36 243.06 54.69 244.36 C 62.12 253.91 69.58 263.45 77.02 272.99 C 69.76 273.01 62.50 273.00 55.24 272.99 C 49.01 263.67 42.83 254.32 36.56 245.02 C 36.56 254.35 36.57 263.67 36.56 273.00 C 30.82 272.97 25.08 273.06 19.34 272.95 C 19.40 247.00 19.39 221.05 19.35 195.10 M 36.56 208.59 C 36.55 216.27 36.57 223.94 36.55 231.61 C 41.14 231.31 46.12 232.56 50.39 230.40 C 57.46 226.58 57.93 215.20 51.48 210.57 C 47.18 207.39 41.51 208.97 36.56 208.59 Z" />
<path fill="#ffffff" opacity="1.00" d=" M 130.80 195.01 C 135.59 195.10 140.38 195.09 145.17 195.02 C 155.86 220.96 166.30 247.01 176.88 273.00 C 170.71 272.96 164.53 273.08 158.36 272.94 C 156.59 267.69 154.67 262.50 152.81 257.29 C 142.93 257.30 133.04 257.29 123.15 257.29 C 121.30 262.50 119.36 267.67 117.63 272.92 C 111.44 273.09 105.25 272.98 99.07 272.98 C 109.70 247.01 120.08 220.94 130.80 195.01 M 137.79 215.88 C 134.52 224.93 131.37 234.03 128.08 243.08 C 134.63 243.30 141.20 243.26 147.75 243.10 C 144.33 234.07 141.60 224.73 137.79 215.88 Z" />
<path fill="#ffffff" opacity="1.00" d=" M 207.37 195.08 C 215.61 195.09 223.84 194.98 232.08 195.13 C 243.32 195.43 254.39 200.85 261.21 209.85 C 272.51 224.33 271.83 246.79 259.43 260.41 C 252.34 268.43 241.70 272.93 231.05 272.97 C 223.14 272.99 215.23 273.07 207.33 272.93 C 207.43 246.98 207.36 221.03 207.37 195.08 M 224.32 211.03 C 224.45 226.43 224.16 241.85 224.47 257.25 C 228.67 257.14 233.02 257.34 237.04 255.88 C 243.43 253.77 248.47 248.35 250.44 241.96 C 253.32 233.09 251.19 222.29 243.90 216.15 C 238.59 211.38 231.14 210.66 224.32 211.03 Z" />
</g>
</svg>
